#!OML:ASF H:\Punching\Project 1\Capture day 1\Session 1\female.ASF
:FULLY-SPECIFIED
:DEGREES
1531
root 0.989906 15.288 5.39384 -17.0642 -23.5712 11.0972
lowerback 8.77589 -0.652859 5.05011
upperback 1.15907 -0.740322 -7.39117
thorax -3.88695 -0.526634 -10.7285
lowerneck -0.207895 13.4438 16.6595
upperneck 36.5285 24.0822 -16.5704
head 18.2807 10.8928 -6.26112
rclavicle -4.24405e-014 -1.55052e-014
rhumerus 13.4608 38.3723 -66.7175
rradius 126.652
rwrist -15.8355
rhand -29.9476 9.59528
rfingers 7.12502
rthumb -3.26685 -20.3594
lclavicle -4.24405e-014 -1.55052e-014
lhumerus -14.1095 -5.41019 62.6172
lradius 142.381
lwrist 3.04586
lhand -25.5539 4.21653
lfingers 7.12502
lthumb 0.976594 34.194
rfemur -3.12283 7.21204 20.2371
rtibia 41.0498
rfoot -19.8639 -7.761
rtoes 16.0962
lfemur -110.485 32.8863 -30.3382
ltibia 134.943
lfoot -154.17 172.979
ltoes -8.30601
1532
root 0.996979 15.2861 5.34445 -16.081 -23.0998 10.8227
lowerback 8.70238 -0.641459 4.99968
upperback 1.03637 -0.726438 -7.25822
thorax -3.9701 -0.524217 -10.5497
lowerneck -0.606989 13.3504 16.5476
upperneck 36.3822 23.9069 -16.6427
head 18.2337 10.7814 -6.279
rclavicle 7.52897e-014 -3.4191e-014
rhumerus 13.8044 38.0416 -66.3447
rradius 126.75
rwrist -15.8819
rhand -29.9395 9.61172
rfingers 7.12502
rthumb -3.25901 -20.3431
lclavicle 7.52897e-014 -3.4191e-014
lhumerus -13.7753 -5.53697 62.554
lradius 142.268
lwrist 2.94295
lhand -25.4624 4.0164
lfingers 7.12502
lthumb 1.06496 33.9935
rfemur -4.36156 6.90657 20.2964
rtibia 41.3402
rfoot -19.8 -7.90926
rtoes 16.1603
lfemur -109.852 32.7092 -30.7419
ltibia 136.22
lfoot -154.165 172.196
ltoes -9.08049
1533
root 1.00364 15.286 5.29465 -15.0833 -22.6142 10.5581
lowerback 8.60653 -0.629288 4.94672
upperback 0.904504 -0.712368 -7.12526
thorax -4.05028 -0.521694 -10.3698
lowerneck -0.991655 13.2543 16.4307
upperneck 36.2301 23.7309 -16.7203
head 18.1806 10.6697 -6.29972
rclavicle 3.85642e-014 3.26007e-014
rhumerus 14.1432 37.7131 -65.9909
rradius 126.831
rwrist -15.9041
rhand -29.9524 9.66723
rfingers 7.12502
rthumb -3.27144 -20.2874
lclavicle 3.85642e-014 3.26007e-014
lhumerus -13.4655 -5.69611 62.5281
lradius 142.153
lwrist 2.9034
lhand -25.3724 3.81763
lfingers 7.12502
lthumb 1.15191 33.7943
rfemur -5.61494 6.61508 20.3586
rtibia 41.6107
rfoot -19.7153 -8.08525
rtoes 16.2107
lfemur -109.042 32.457 -30.9821
ltibia 137.266
lfoot -154.123 171.491
ltoes -9.72864
1534
root 1.0072 15.3074 5.24031 -14.0586 -22.1035 10.3101
lowerback 8.46601 -0.618842 4.88688
upperback 0.761861 -0.702598 -6.99781
thorax -4.11761 -0.520943 -10.1914
lowerneck -1.36765 13.1561 16.3093
upperneck 36.0778 23.5531 -16.7965
head 18.1243 10.5573 -6.32027
rclavicle -7.12643e-014 -1.19271e-014
rhumerus 14.4663 37.3815 -65.6595
rradius 126.912
rwrist -15.9344
rhand -29.9579 9.70932
rfingers 7.12502
rthumb -3.27681 -20.2452
lclavicle -7.12643e-014 -1.19271e-014
lhumerus -13.1732 -5.91953 62.5302
lradius 142.067
lwrist 2.92473
lhand -25.3069 3.72139
lfingers 7.12502
lthumb 1.21518 33.6977
rfemur -6.85346 6.32128 20.4124
rtibia 41.7962
rfoot -19.5927 -8.27987
rtoes 16.2487
lfemur -107.826 32.2025 -31.1016
ltibia 137.937
lfoot -154.186 170.842
ltoes -10.1893
1535
root 1.01293 15.3096 5.19064 -13.0025 -21.5639 10.0834
lowerback 8.27686 -0.610993 4.81327
upperback 0.6058 -0.699124 -6.8768
thorax -4.1729 -0.522975 -10.0113
lowerneck -1.73763 13.0563 16.1897
upperneck 35.9247 23.3739 -16.8731
head 18.0669 10.4449 -6.34217
rclavicle 6.73383e-014 6.0033e-014
rhumerus 14.7715 37.0439 -65.3537
rradius 126.994
rwrist -15.9774
rhand -29.9494 9.73067
rfingers 7.12502
rthumb -3.26862 -20.224
lclavicle 6.73383e-014 6.0033e-014
lhumerus -12.9025 -6.20458 62.561
lradius 142.012
lwrist 2.99488
lhand -25.2731 3.72149
lfingers 7.12502
lthumb 1.24783 33.6976
rfemur -8.16197 6.01629 20.4432
rtibia 42.0161
rfoot -19.4799 -8.48605
rtoes 16.2802
lfemur -106.732 31.7069 -31.0632
ltibia 138.509
lfoot -154.105 170.305
ltoes -10.6081
1536
root 1.01791 15.3141 5.14099 -11.9221 -20.9884 9.88331
lowerback 8.0411 -0.608505 4.72288
upperback 0.437878 -0.705936 -6.76514
thorax -4.21628 -0.529718 -9.83053
lowerneck -2.10123 12.9554 16.0743
upperneck 35.7727 23.1927 -16.9462
head 18.0088 10.3328 -6.36408
rclavicle 4.22417e-016 1.86858e-014
rhumerus 15.0576 36.7024 -65.0763
rradius 127.069
rwrist -16.0167
rhand -29.9474 9.75028
rfingers 7.12502
rthumb -3.26671 -20.2044
lclavicle 4.22417e-016 1.86858e-014
lhumerus -12.646 -6.53541 62.6105
lradius 141.98
lwrist 3.09276
lhand -25.2658 3.76271
lfingers 7.12502
lthumb 1.25487 33.7388
rfemur -9.48675 5.69344 20.4462
rtibia 42.2051
rfoot -19.3663 -8.68971
rtoes 16.3438
lfemur -105.482 31.0544 -30.8954
ltibia 138.833
lfoot -154.059 169.828
ltoes -10.9866
1537
root 1.02216 15.3208 5.09136 -10.8248 -20.3721 9.71753
lowerback 7.76011 -0.614489 4.60805
upperback 0.266127 -0.727603 -6.66465
thorax -4.24068 -0.542756 -9.64594
lowerneck -2.47412 12.8588 15.9544
upperneck 35.623 23.0137 -17.0062
head 17.9521 10.2213 -6.3778
rclavicle 1.72197e-014 -5.96354e-015
rhumerus 15.3432 36.3527 -64.8207
rradius 127.132
rwrist -16.0482
rhand -29.951 9.77291
rfingers 7.12502
rthumb -3.27016 -20.1818
lclavicle 1.72197e-014 -5.96354e-015
lhumerus -12.387 -6.88555 62.6687
lradius 141.964
lwrist 3.18387
lhand -25.2694 3.82706
lfingers 7.12502
lthumb 1.25139 33.8031
rfemur -10.8562 5.34606 20.4131
rtibia 42.4462
rfoot -19.303 -8.89363
rtoes 16.4153
lfemur -104.067 30.2241 -30.6155
ltibia 138.914
lfoot -154.075 169.403
ltoes -11.2997
1538
root 1.02577 15.3296 5.042 -9.72206 -19.7122 9.5895
lowerback 7.44537 -0.631896 4.46636
upperback 0.0907311 -0.767838 -6.575
thorax -4.25279 -0.564159 -9.45566
lowerneck -2.84196 12.7655 15.8385
upperneck 35.4691 22.8381 -17.0616
head 17.893 10.1124 -6.38913
rclavicle -1.28465e-014 3.65764e-014
rhumerus 15.6206 36.0029 -64.5885
rradius 127.183
rwrist -16.0675
rhand -29.9644 9.78258
rfingers 7.12502
rthumb -3.28304 -20.1719
lclavicle -1.28465e-014 3.65764e-014
lhumerus -12.1278 -7.22769 62.7283
lradius 141.94
lwrist 3.24044
lhand -25.2701 3.84349
lfingers 7.12502
lthumb 1.25068 33.8196
rfemur -12.2209 4.97241 20.3409
rtibia 42.6553
rfoot -19.2411 -9.08745
rtoes 16.4921
lfemur -102.508 29.2013 -30.2433
ltibia 138.751
lfoot -154.183 168.974
ltoes -11.5801
1539
root 1.02891 15.3398 4.9928 -8.61913 -19.0105 9.48695
lowerback 7.10772 -0.660529 4.31712
upperback -0.0856417 -0.824093 -6.49498
thorax -4.25541 -0.593055 -9.2705
lowerneck -3.21505 12.6723 15.7231
upperneck 35.3233 22.6582 -17.102
head 17.8363 10.0026 -6.39459
rclavicle 3.84648e-014 1.59028e-014
rhumerus 15.8872 35.6506 -64.3811
rradius 127.22
rwrist -16.0775
rhand -29.9847 9.77593
rfingers 7.12502
rthumb -3.30269 -20.1782
lclavicle 3.84648e-014 1.59028e-014
lhumerus -11.8565 -7.54754 62.782
lradius 141.895
lwrist 3.24717
lhand -25.2571 3.77099
lfingers 7.12502
lthumb 1.26326 33.747
rfemur -13.5754 4.57418 20.2463
rtibia 42.8411
rfoot -19.1767 -9.27921
rtoes 16.5629
lfemur -100.838 27.9887 -29.7968
ltibia 138.359
lfoot -154.364 168.539
ltoes -11.7539
1540
root 1.03177 15.3507 4.94364 -7.53083 -18.2694 9.40567
lowerback 6.76787 -0.702316 4.16596
upperback -0.262687 -0.897899 -6.42104
thorax -4.26004 -0.630722 -9.09005
lowerneck -3.57559 12.5792 15.6041
upperneck 35.1826 22.4763 -17.1277
head 17.7758 9.89332 -6.3941
rclavicle -3.64024e-014 -3.18055e-015
rhumerus 16.1317 35.3048 -64.1992
rradius 127.246
rwrist -16.0937
rhand -30.0206 9.80723
rfingers 7.12502
rthumb -3.33732 -20.1464
lclavicle -3.64024e-014 -3.18055e-015
lhumerus -11.5698 -7.80982 62.8183
lradius 141.809
lwrist 3.23911
lhand -25.219 3.49957
lfingers 7.12502
lthumb 1.30002 33.4754
rfemur -14.9096 4.15237 20.1382
rtibia 43.0139
rfoot -19.1068 -9.47507
rtoes 16.6197
lfemur -99.0817 26.6008 -29.3095
ltibia 137.756
lfoot -154.618 168.127
ltoes -11.8041
1541
root 1.0346 15.3616 4.89454 -6.46122 -17.4941 9.32934
lowerback 6.44435 -0.756899 4.03267
upperback -0.444387 -0.986878 -6.34876
thorax -4.28105 -0.67699 -8.92171
lowerneck -3.91941 12.4823 15.4828
upperneck 35.0506 22.2867 -17.1379
head 17.7109 9.78286 -6.38943
rclavicle 4.03036e-014 1.63003e-014
rhumerus 16.3441 34.9711 -64.0428
rradius 127.268
rwrist -16.1362
rhand -30.059 9.82426
rfingers 7.12502
rthumb -3.37448 -20.1288
lclavicle 4.03036e-014 1.63003e-014
lhumerus -11.2815 -8.04724 62.8459
lradius 141.72
lwrist 3.20895
lhand -25.1223 3.23019
lfingers 7.12502
lthumb 1.39344 33.2054
rfemur -16.219 3.7121 20.0382
rtibia 43.1831
rfoot -19.0299 -9.68675
rtoes 16.6636
lfemur -97.2781 25.0702 -28.8028
ltibia 136.971
lfoot -154.919 167.796
ltoes -11.7052
1542
root 1.03757 15.372 4.84572 -5.42194 -16.6904 9.25446
lowerback 6.14274 -0.819638 3.93089
upperback -0.626809 -1.08384 -6.27968
thorax -4.31647 -0.728406 -8.77591
lowerneck -4.2447 12.3778 15.3555
upperneck 34.9313 22.0829 -17.1269
head 17.64 9.66867 -6.37918
rclavicle 2.55066e-014 -1.19271e-015
rhumerus 16.5141 34.6439 -63.9107
rradius 127.293
rwrist -16.2189
rhand -30.0901 9.84259
rfingers 7.12502
rthumb -3.40443 -20.11
lclavicle 2.55066e-014 -1.19271e-015
lhumerus -10.9855 -8.27135 62.8665
lradius 141.621
lwrist 3.1775
lhand -24.9806 2.95058
lfingers 7.12502
lthumb 1.53027 32.9248
rfemur -17.4941 3.25527 19.953
rtibia 43.3561
rfoot -18.9494 -9.91627
rtoes 16.7073
lfemur -95.4357 23.4455 -28.3072
ltibia 136.035
lfoot -155.254 167.62
ltoes -11.475
1543
root 1.04091 15.3813 4.7976 -4.41936 -15.8641 9.18208
lowerback 5.86915 -0.888831 3.85949
upperback -0.813041 -1.18672 -6.20981
thorax -4.37271 -0.784179 -8.64763
lowerneck -4.54097 12.2645 15.217
upperneck 34.8224 21.8663 -17.0996
head 17.5598 9.55098 -6.36495
rclavicle -1.02374e-014 -9.54166e-015
rhumerus 16.6409 34.3292 -63.7942
rradius 127.328
rwrist -16.3552
rhand -30.0994 9.8554
rfingers 7.12502
rthumb -3.41341 -20.097
lclavicle -1.02374e-014 -9.54166e-015
lhumerus -10.7283 -8.57249 62.9112
lradius 141.535
lwrist 3.00314
lhand -24.9011 2.91961
lfingers 7.12502
lthumb 1.60708 32.8933
rfemur -18.7304 2.78081 19.882
rtibia 43.5379
rfoot -18.8698 -10.1612
rtoes 16.7508
lfemur -93.5618 21.779 -27.8498
ltibia 134.98
lfoot -155.598 167.7
ltoes -11.0694
1544
root 1.04472 15.3893 4.75052 -3.45701 -15.0254 9.10885
lowerback 5.62459 -0.962111 3.81853
upperback -0.99688 -1.29213 -6.1351
thorax -4.44328 -0.842166 -8.53248
lowerneck -4.81567 12.143 15.0711
upperneck 34.7112 21.6412 -17.0733
head 17.4709 9.43033 -6.35329
rclavicle -5.87036e-015 -4.96962e-014
rhumerus 16.7413 34.021 -63.6783
rradius 127.365
rwrist -16.5259
rhand -30.0938 9.90882
rfingers 7.12502
rthumb -3.40804 -20.0437
lclavicle -5.87036e-015 -4.96962e-014
lhumerus -10.501 -8.94541 62.9862
lradius 141.473
lwrist 2.75075
lhand -24.859 3.1459
lfingers 7.12502
lthumb 1.64773 33.1193
rfemur -19.9238 2.29604 19.8281
rtibia 43.7311
rfoot -18.7998 -10.4123
rtoes 16.8232
lfemur -91.6561 20.133 -27.4389
ltibia 133.836
lfoot -155.947 168.039
ltoes -10.6189
1545
root 1.04925 15.3957 4.70466 -2.53512 -14.1859 9.03916
lowerback 5.39795 -1.0334 3.80738
upperback -1.1753 -1.39221 -6.05731
thorax -4.51755 -0.898054 -8.43259
lowerneck -5.08518 12.017 14.9111
upperneck 34.6117 21.413 -17.0398
head 17.384 9.3074 -6.33785
rclavicle 4.78792e-015 1.35174e-014
rhumerus 16.8346 33.7111 -63.5493
rradius 127.404
rwrist -16.722
rhand -30.0643 10.0301
rfingers 7.12502
rthumb -3.37959 -19.9229
lclavicle 4.78792e-015 1.35174e-014
lhumerus -10.2985 -9.3928 63.0976
lradius 141.443
lwrist 2.43988
lhand -24.8545 3.61955
lfingers 7.12502
lthumb 1.65211 33.5929
rfemur -21.0778 1.80127 19.7854
rtibia 43.9374
rfoot -18.7431 -10.66
rtoes 16.8989
lfemur -89.7098 18.5545 -27.0774
ltibia 132.627
lfoot -156.273 168.637
ltoes -10.1584
